<?xml version="1.0" encoding="utf-8"?>
<!-- Generator: Adobe Illustrator 19.1.0, SVG Export Plug-In . SVG Version: 6.00 Build 0)  -->
<svg version="1.1" id="Layer_1" xmlns="http://www.w3.org/2000/svg" xmlns:xlink="http://www.w3.org/1999/xlink" x="0px" y="0px"
	 viewBox="0 0 180 250" style="enable-background:new 0 0 180 250;" xml:space="preserve">
<style type="text/css">
	.st0{fill:#ACFB8D;}
	.st1{fill:#00D33C;}
	.st2{fill:#009A31;}
	.st3{fill:#84CF96;}
	.st4{fill:#C6E7CE;}
	.st5{fill:#90FC90;}
</style>
<g id="XMLID_1_">
	<g>
		<path class="st0" d="M25,81.3L89.7,124L25,81.3C25,81.3,25,81.3,25,81.3z"/>
		<path class="st1" d="M89.9,249.5v-41v0l0,0L0,148.4c-0.3,4-0.2,6.9,0,8.9c1.2,15.5,7.2,26.4,9,29.4c6.1,10.4,13.7,16.6,19.2,20.9
			C50.8,225.5,75.1,240.7,89.9,249.5z"/>
		<path class="st2" d="M90,249.5C90,249.5,90,249.6,90,249.5L90,249.5C90,249.5,90,249.5,90,249.5z"/>
		<path class="st2" d="M179.9,157.3c0.2-2,0.3-4.8,0-8.8l-89.9,60v-0.1l-0.1,0v0v0v41c14.8-8.8,39.2-24,61.8-41.9
			c4.5-3.6,10.4-8.3,15.7-15.5c1.2-1.7,2.4-3.5,3.5-5.4C172.7,183.7,178.7,172.8,179.9,157.3z"/>
		<path class="st3" d="M90,208.5V167v-0.1v0L8.8,113c-1.4,3.6-2.7,7.4-3.9,11.4c-3.2,10.7-4.5,18.4-4.9,24L90,208.5L90,208.5z"/>
		<path class="st4" d="M90,124.4v-0.1v-0.1l-0.3-0.2L25,81.3c-5.6,9.1-11.4,19.4-16.2,31.7L90,166.9V124.4z"/>
		<path class="st2" d="M90,124.2V0.7V0.5c-8.6,8.1-18.5,18.9-29.7,32.2c-8.3,9.9-17.4,20.8-27.5,36.2c-2.6,3.9-5.2,8-7.9,12.3l0.1,0
			c0,0,0,0,0,0L89.7,124L90,124.2z"/>
		<polygon class="st3" points="90,208.5 90,208.5 90,208.5 		"/>
		<path class="st5" d="M90,208.5L90,208.5l89.9-60c0,0,0,0,0-0.1L90,208.5z"/>
		<polygon class="st5" points="90,208.5 90,167 90,167 90,208.5 		"/>
		<path class="st4" d="M179.9,148.5c-0.4-5.6-1.7-13.4-4.9-24c-1.2-3.9-2.5-7.7-3.9-11.3L90,167v41.5L179.9,148.5z"/>
		<path class="st5" d="M90,166.9L90,166.9l81.1-53.7c0,0,0-0.1,0-0.1L90,166.9z"/>
		<path class="st3" d="M90,166.9l81.1-53.8c-0.3-0.7-0.6-1.5-0.9-2.2c-4.6-11.4-10.1-21-15.3-29.5l-65,42.9v0.1L90,166.9L90,166.9
			L90,167L90,166.9L90,166.9z"/>
		<path class="st1" d="M155.1,81.2c-2.7-4.4-5.3-8.4-7.9-12.3c-10.1-15.3-19.1-26.2-27.5-36.2C108.6,19.4,98.6,8.6,90,0.5v123.6
			L155.1,81.2z"/>
		<path class="st5" d="M152,207.6c4.5-3.6,10.2-8.3,15.5-15.5c-5.3,7.2-11.2,12-15.7,15.5c-22.6,17.9-46.9,33-61.8,41.9v0
			c0,0.1,0,0.1,0.1,0.2C104.9,240.9,129.2,225.7,152,207.6z"/>
		<path class="st5" d="M90,0.5c8.6,8.1,18.5,18.9,29.7,32.2c8.3,9.9,17.4,20.8,27.5,36.2c2.6,3.9,5.2,8,7.9,12.3L90,124.2V0.5z
			 M170.2,110.9c-6.9-17.3-15.4-30.4-23-41.9c-10.1-15.3-19.1-26.2-27.5-36.2C108.5,19.3,98.3,8.3,90.1,0.2L90,0.5v0.2v123.5v0.1
			l65-42.9C160.2,89.9,165.7,99.5,170.2,110.9z"/>
		<path class="st5" d="M170.2,110.9c0.3,0.7,0.6,1.5,0.9,2.2C170.8,112.3,170.5,111.6,170.2,110.9z"/>
		<path class="st4" d="M179.9,148.5C179.9,148.5,179.9,148.5,179.9,148.5L179.9,148.5C179.9,148.5,179.9,148.5,179.9,148.5
			L179.9,148.5z"/>
		<path class="st4" d="M171.2,113L171.2,113c-0.1,0.1-0.1,0.1-0.1,0.1c1.4,3.6,2.7,7.3,3.9,11.3c3.2,10.7,4.5,18.5,4.9,24l0,0
			c0,0,0,0,0,0.1l0.1-0.1c-0.4-5.6-1.7-13.4-4.9-24C173.9,120.4,172.6,116.6,171.2,113z"/>
	</g>
	<g>
	</g>
</g>
</svg>
